<?xml version="1.0" encoding="UTF-8"?>
<svg id="Calque_1" data-name="Calque 1" xmlns="http://www.w3.org/2000/svg" viewBox="0 0 245.87 113.75">
  <defs>
    <style>
      .cls-1 {
        fill: #fcc350;
      }

      .cls-1, .cls-2, .cls-3, .cls-4, .cls-5, .cls-6, .cls-7, .cls-8, .cls-9, .cls-10, .cls-11, .cls-12, .cls-13, .cls-14, .cls-15, .cls-16, .cls-17, .cls-18, .cls-19, .cls-20, .cls-21, .cls-22, .cls-23, .cls-24, .cls-25, .cls-26, .cls-27, .cls-28, .cls-29, .cls-30, .cls-31, .cls-32, .cls-33, .cls-34, .cls-35, .cls-36, .cls-37, .cls-38, .cls-39, .cls-40, .cls-41, .cls-42, .cls-43, .cls-44, .cls-45, .cls-46, .cls-47, .cls-48, .cls-49, .cls-50, .cls-51, .cls-52, .cls-53, .cls-54, .cls-55, .cls-56, .cls-57, .cls-58, .cls-59, .cls-60, .cls-61, .cls-62, .cls-63, .cls-64, .cls-65, .cls-66, .cls-67, .cls-68, .cls-69, .cls-70, .cls-71, .cls-72, .cls-73, .cls-74, .cls-75, .cls-76, .cls-77, .cls-78, .cls-79, .cls-80, .cls-81, .cls-82, .cls-83, .cls-84, .cls-85, .cls-86, .cls-87, .cls-88, .cls-89, .cls-90, .cls-91, .cls-92, .cls-93, .cls-94, .cls-95, .cls-96, .cls-97, .cls-98, .cls-99, .cls-100, .cls-101, .cls-102, .cls-103, .cls-104, .cls-105, .cls-106, .cls-107, .cls-108, .cls-109, .cls-110, .cls-111, .cls-112, .cls-113, .cls-114, .cls-115, .cls-116, .cls-117, .cls-118, .cls-119, .cls-120, .cls-121, .cls-122, .cls-123, .cls-124, .cls-125, .cls-126, .cls-127, .cls-128, .cls-129, .cls-130, .cls-131, .cls-132, .cls-133, .cls-134 {
        stroke-width: 0px;
      }

      .cls-2 {
        fill: #fecd5a;
      }

      .cls-3 {
        fill: #c57d1e;
      }

      .cls-4 {
        fill: #e39118;
      }

      .cls-5 {
        fill: #fcd64e;
      }

      .cls-6 {
        fill: #e8a037;
      }

      .cls-7 {
        fill: #e99b26;
      }

      .cls-8 {
        fill: #f5b23d;
      }

      .cls-9 {
        fill: #fdc94e;
      }

      .cls-10 {
        fill: #fecb4f;
      }

      .cls-11 {
        fill: #d68f34;
      }

      .cls-12 {
        fill: #efb634;
      }

      .cls-13 {
        fill: #d98e2e;
      }

      .cls-14 {
        fill: #f5c741;
      }

      .cls-15 {
        fill: #e7ad32;
      }

      .cls-16 {
        fill: #f9b741;
      }

      .cls-17 {
        fill: #eaa92a;
      }

      .cls-18 {
        fill: #efb93a;
      }

      .cls-19 {
        fill: #de890e;
      }

      .cls-20 {
        fill: #e09b3d;
      }

      .cls-21 {
        fill: #f2bd3b;
      }

      .cls-22 {
        fill: #f8b542;
      }

      .cls-23 {
        fill: #e49c35;
      }

      .cls-24 {
        fill: #fbc83f;
      }

      .cls-25 {
        fill: #e09417;
      }

      .cls-26 {
        fill: #f6c33d;
      }

      .cls-27 {
        fill: #f5c246;
      }

      .cls-28 {
        fill: #f9ba43;
      }

      .cls-29 {
        fill: #d29432;
      }

      .cls-135 {
        fill: none;
        stroke: #1d1d1b;
        stroke-miterlimit: 10;
        stroke-width: 3px;
      }

      .cls-30 {
        fill: #ebb536;
      }

      .cls-31 {
        fill: #e79722;
      }

      .cls-32 {
        fill: #fdc54c;
      }

      .cls-33 {
        fill: #f8b640;
      }

      .cls-34 {
        fill: #f7cb45;
      }

      .cls-35 {
        fill: #e18c12;
      }

      .cls-36 {
        fill: #e4aa31;
      }

      .cls-37 {
        fill: #eca946;
      }

      .cls-38 {
        fill: #d99a2a;
      }

      .cls-39 {
        fill: #fbd657;
      }

      .cls-40 {
        fill: #f7b94d;
      }

      .cls-41 {
        fill: #f2bd3a;
      }

      .cls-42 {
        fill: #e9b134;
      }

      .cls-43 {
        fill: #f1bd43;
      }

      .cls-44 {
        fill: #c0721b;
      }

      .cls-45 {
        fill: #f9ce48;
      }

      .cls-46 {
        fill: #bf761d;
      }

      .cls-47 {
        fill: #e79f22;
      }

      .cls-48 {
        fill: #e8a730;
      }

      .cls-49 {
        fill: #fbd34c;
      }

      .cls-50 {
        fill: #d08325;
      }

      .cls-51 {
        fill: #ecae2e;
      }

      .cls-52 {
        fill: #d68a2b;
      }

      .cls-53 {
        fill: #e2971c;
      }

      .cls-54 {
        fill: #c8852d;
      }

      .cls-55 {
        fill: #ffd450;
      }

      .cls-56 {
        fill: #f8c53d;
      }

      .cls-57 {
        fill: #d18d26;
      }

      .cls-58 {
        fill: #fcc149;
      }

      .cls-59 {
        fill: #dd932f;
      }

      .cls-60 {
        fill: #c97c20;
      }

      .cls-61 {
        fill: #e09731;
      }

      .cls-62 {
        fill: #f1bb38;
      }

      .cls-63 {
        fill: #e99c2b;
      }

      .cls-64 {
        fill: #edb131;
      }

      .cls-65 {
        fill: #c3741b;
      }

      .cls-66 {
        fill: #f1ab3e;
      }

      .cls-67 {
        fill: #e9a628;
      }

      .cls-68 {
        fill: #e59e27;
      }

      .cls-69 {
        fill: #efa431;
      }

      .cls-70 {
        fill: #f3ad3a;
      }

      .cls-71 {
        fill: #d49327;
      }

      .cls-72 {
        fill: #d79728;
      }

      .cls-73 {
        fill: #e09217;
      }

      .cls-74 {
        fill: #fab946;
      }

      .cls-75 {
        fill: #f8b63f;
      }

      .cls-76 {
        fill: #eda330;
      }

      .cls-77 {
        fill: #f2ae3f;
      }

      .cls-78 {
        fill: #dea438;
      }

      .cls-79 {
        fill: #ebaf37;
      }

      .cls-80 {
        fill: #fdc747;
      }

      .cls-81 {
        fill: #c6791f;
      }

      .cls-82 {
        fill: #e39a1e;
      }

      .cls-83 {
        fill: #eca12d;
      }

      .cls-84 {
        fill: #e28f17;
      }

      .cls-85 {
        fill: #e99f33;
      }

      .cls-86 {
        fill: #f4ae3c;
      }

      .cls-87 {
        fill: #fbbf45;
      }

      .cls-88 {
        fill: #e7a325;
      }

      .cls-89 {
        fill: #f5c03b;
      }

      .cls-90 {
        fill: #f2aa37;
      }

      .cls-91 {
        fill: #f6b64b;
      }

      .cls-92 {
        fill: #ffd051;
      }

      .cls-93 {
        fill: #bc6e19;
      }

      .cls-94 {
        fill: #c2791e;
      }

      .cls-95 {
        fill: #eb9f2b;
      }

      .cls-96 {
        fill: #fbc151;
      }

      .cls-97 {
        fill: #cd8825;
      }

      .cls-98 {
        fill: #e19831;
      }

      .cls-99 {
        fill: #cc8022;
      }

      .cls-100 {
        fill: #e2a630;
      }

      .cls-101 {
        fill: #d2862a;
      }

      .cls-102 {
        fill: #f2ba39;
      }

      .cls-103 {
        fill: #df9013;
      }

      .cls-104 {
        fill: #faba44;
      }

      .cls-105 {
        fill: #c37e2a;
      }

      .cls-106 {
        fill: #ffd251;
      }

      .cls-107 {
        fill: #e8a038;
      }

      .cls-108 {
        fill: #e19418;
      }

      .cls-109 {
        fill: #f3b145;
      }

      .cls-110 {
        fill: #e9b034;
      }

      .cls-111 {
        fill: #efa734;
      }

      .cls-112 {
        fill: #fecb47;
      }

      .cls-113 {
        fill: #f5b141;
      }

      .cls-114 {
        fill: #e5941d;
      }

      .cls-115 {
        fill: #fece4f;
      }

      .cls-116 {
        fill: #c17726;
      }

      .cls-117 {
        fill: #fcc346;
      }

      .cls-118 {
        fill: #eba338;
      }

      .cls-119 {
        fill: #eda63b;
      }

      .cls-120 {
        fill: #da9233;
      }

      .cls-121 {
        fill: #df8d11;
      }

      .cls-122 {
        fill: #cd8530;
      }

      .cls-123 {
        fill: #1d1d1b;
      }

      .cls-124 {
        fill: #e2971f;
      }

      .cls-125 {
        fill: #f4c33e;
      }

      .cls-126 {
        fill: #fbbe47;
      }

      .cls-127 {
        fill: #efb938;
      }

      .cls-128 {
        fill: #e8b140;
      }

      .cls-129 {
        fill: #dea12f;
      }

      .cls-130 {
        fill: #e18d13;
      }

      .cls-131 {
        fill: #fecd43;
      }

      .cls-132 {
        fill: #e29a33;
      }

      .cls-133 {
        fill: #e2981b;
      }

      .cls-134 {
        fill: #c88321;
      }
    </style>
  </defs>
  <g>
    <path class="cls-123" d="M11.88,53.95h-1.58c-.86-.07-4.54-.58-5.33-.86-1.66-.58-3.46-1.15-4.46-2.59-.94-1.37-.43-3.31,1.08-4.03.58-.29,1.37-.22,2.02-.07.65.07,1.3.07,1.87,0,4.25-.22,14.55-1.15,17.07-4.54.65-.86.36-3.1-.07-4.1-1.08-2.52-3.46-4.39-5.76-5.76-3.67-2.23-7.99-3.46-11.45-5.98-2.16-1.58-4.1-3.82-4.97-6.41-.5-1.8-.36-4.03.65-5.69,1.08-1.73,2.52-3.31,4.39-4.25,3.89-2.02,8.35-3.31,12.75-3.6,1.22-.07,6.26-.22,7.42.14.94.29,1.73.94,2.23,1.73,1.73,2.74-.14,6.41-3.38,6.34-3.31-.07-6.62-.22-9.94.22-2.16.29-4.39.58-6.48,1.37-1.01.36-2.16.86-2.59,1.8-.36.94.22,2.16.86,2.95,1.58,2.09,4.1,3.38,6.48,4.46,2.95,1.3,5.9,2.38,8.64,3.96,2.81,1.73,5.4,4.18,6.98,7.06.79,1.58,1.37,3.38,1.44,5.18.07,2.74-1.3,5.69-3.24,7.63-1.22,1.15-2.66,2.16-4.25,2.81-3.24,1.37-6.84,2.23-10.37,2.23Z"/>
    <path class="cls-123" d="M54.57,52c-.86-.58-1.8-1.37-2.16-2.38-.22-.43-.65-2.81-.72-3.31-.29-2.3-.36-4.68-.29-7.06.07-1.8.79-10.94.58-12.67-1.01,0-1.94.36-2.74.86-1.8,1.08-3.02,2.95-4.1,4.75-1.37,2.45-2.45,5.04-3.38,7.7-.72,2.02-1.44,4.18-1.51,6.34-.07,1.15.22,2.38-.14,3.53-.29.79-1.08,1.37-1.87,1.44-.29,0-1.44.36-1.66.43-1.15.07-2.38-.58-3.1-1.44-.86-.94-1.3-2.16-1.58-3.38-.43-1.66-1.08-8.79-.94-10.44.07-.72.07-1.51.14-2.23.07-2.52.43-4.97.94-7.49.22-1.15.5-2.38,1.01-3.53.29-.65,1.44-2.3,2.02-2.66,1.94-1.15,4.32.43,3.96,2.66-.29,1.73-.72,10.3-.65,12.03,1.58-3.74,3.53-7.49,6.41-10.37,2.45-2.45,7.42-4.39,10.37-2.52,1.44.86,2.3,2.52,2.66,4.1.43,1.87.65,3.74.72,5.69.29,5.11.07,10.37,1.15,15.41.22,1.01-.14,2.09-.58,3.1-.65,1.58-3.02,2.38-4.54,1.44Z"/>
    <path class="cls-123" d="M70.19,53.95c-2.02-1.08-3.82-2.59-5.18-4.39-2.52-3.17-3.96-7.49-4.1-11.52-.14-4.9,1.44-10.3,4.75-13.83,2.23-2.45,5.18-4.54,8.35-5.11,5.62-1.15,11.52,2.23,13.32,7.56.79,2.16.86,4.75.14,6.91-.65,1.73-2.02,3.31-3.53,4.25-2.66,1.66-6.26,1.51-9.43,1.01-2.74-.43-5.54-1.51-7.85-3.1,0,2.45.43,5.04,1.58,7.27.94,1.8,2.23,3.53,3.82,4.75,1.22.86,2.66,1.51,4.1,1.66,1.15.14,2.38-.07,3.38-.5,2.02-.79,3.82-2.09,5.54-3.46.86-.79,1.94-1.66,3.1-1.58,1.8.07,3.02,1.73,2.66,3.46-.36,1.51-1.8,2.66-3.02,3.6-2.16,1.73-4.54,3.24-7.13,4.1-3.38,1.08-7.42.58-10.51-1.08ZM81.64,31.77c.58-.58.79-1.51.79-2.3-.14-2.88-3.1-5.11-6.05-5.33-.94,0-1.87.22-2.74.58-2.52.94-4.61,3.24-5.69,5.69,2.23,1.3,4.9,2.09,7.49,2.3,1.44.07,5.18.07,6.19-.94Z"/>
    <path class="cls-123" d="M111.67,54.02c-1.8-1.01-2.95-3.17-3.53-5.18-1.3,1.94-2.95,3.96-5.18,4.75-3.67,1.44-8.35-.58-10.15-4.03-1.58-3.02-1.51-6.62.07-9.5,1.01-1.73,2.59-3.17,4.32-4.1,2.23-1.22,4.82-1.8,7.42-2.16,1.08-.14,2.16-.22,3.24,0,.14-1.94.72-7.49-.36-9.07-.22-.29-.5-.43-.86-.5-2.81-.94-6.48,2.02-8.14,4.46-.58.79-1.01,1.66-1.37,2.45,1.01,1.73-.58,3.6-2.52,3.1-.86-.29-1.58-1.01-1.73-1.87-.36-1.87.29-3.89,1.01-5.69,1.08-2.45,2.88-4.68,5.11-6.19,2.45-1.73,5.98-2.59,8.93-1.94,1.37.36,2.74,1.01,3.74,2.02,1.3,1.3,2.09,3.1,2.45,4.9.58,2.52.58,5.11.43,7.63-.22,4.46-.79,9.15.72,13.39.14.22.5,1.22.65,1.37.86.94,1.66,2.02,1.66,3.24,0,2.95-3.38,4.39-5.9,2.95ZM100.65,47.97c2.23-.58,5.47-6.41,6.7-8.35.14-.14.07-.94.14-1.15-.94-.07-1.8.07-2.66.29-4.03.65-8.35,3.17-7.2,7.06.43,1.37,1.66,2.52,3.02,2.16Z"/>
    <path class="cls-123" d="M122.1,52.94c-.43-.58-.5-1.37-.72-2.09-1.08-3.31-1.73-6.91-2.02-10.44-.5-5.4-.43-10.8.07-16.2.5-5.69,1.08-11.45,2.74-16.85.58-1.73,2.95-2.88,4.54-2.09,1.37.58,2.3,2.59,1.8,4.03-.5,1.73-.94,3.53-1.22,5.33-.86,4.9-1.37,9.79-1.66,14.76,4.32-3.67,8.64-7.27,13.32-10.51,2.23-1.51,5.33-.94,6.26,1.58.29,1.01.22,2.23-.36,3.17-.58,1.08-1.73,1.73-2.81,2.38-1.22.79-8.79,5.47-10.01,6.26,1.51,1.58,9.58,11.02,10.95,12.75.86,1.01,1.58,2.09,1.94,3.38.5,1.58-.36,3.31-1.94,3.67-.72.14-1.51-.07-2.23-.36-.5-.22-1.94-1.58-2.23-2.02-1.44-1.87-9.36-12.82-10.73-14.76-.79.43-1.58.79-2.38,1.22-.07,4.75.65,9.58.22,14.33.29.5.22,1.15,0,1.73-.36,1.58-2.45,1.94-3.53.72Z"/>
    <path class="cls-123" d="M146.8,20.46c-.22-1.58.43-9.79.5-11.38.07-.86-.07-1.8.43-2.45,1.51-2.16,4.9-1.3,4.75,1.37-.07.36,0,2.66,0,3.02,0,2.16,0,4.39-.29,6.48-.14,1.3-.36,2.59-.86,3.74-1.01,2.09-4.25,1.51-4.54-.79Z"/>
    <path class="cls-123" d="M155.3,53.01c-.14-.65,0-1.3.14-1.94.43-2.38.86-4.68,1.37-7.06.07-.07-.14.07-.22.14-.86.65-2.09.36-2.81-.43-.94-1.08-.5-2.66.65-3.53,1.08-.94,2.45-1.44,3.74-1.87,1.94-7.85,4.61-15.48,7.56-22.97.58-1.51,1.15-3.02,1.8-4.46.14-3.67,4.54-5.33,7.06-2.59.36.43,1.58,2.52,1.8,3.02.79,1.8,1.51,3.6,2.02,5.47,1.58,6.19,2.74,12.46,3.82,18.72.72.07,3.6.43,4.25.72,1.66.79,1.8,3.02.29,4.18-.58.5-2.81.58-3.6.58.29,1.66.58,3.24,1.08,4.82.58,1.73-.5,4.03-2.02,4.97-1.87,1.22-4.32.86-5.83-.79-1.01-1.01-1.37-2.52-1.58-3.96-.36-1.66-.65-3.31-.86-5.04-3.96.14-7.92.65-11.74,1.3-.29,1.08-2.02,7.63-2.3,8.71,0,.14.07.22.14.36.65,1.3-.5,2.59-1.94,3.17-1.22.43-2.52-.22-2.81-1.51ZM163.65,36.88c3.17-.65,6.34-1.15,9.5-1.44-.79-6.05-1.73-12.1-2.81-18.15,0-.29-.14.22-.22.43-2.45,6.26-4.61,12.67-6.48,19.15Z"/>
    <path class="cls-123" d="M193.02,52.65c-.43-.43-.65-1.08-.79-1.66-.5-1.44-.94-8.86-1.15-10.37-.36-3.38-1.08-6.77-1.8-10.15-.29-1.22-1.58-6.19-1.44-7.42.14-.86.29-1.73.79-2.38.79-1.08,2.09-2.09,3.38-2.16,1.08,0,2.38.07,3.17.79,1.08.79,2.09,2.02,2.16,3.38,0,.65.22,4.25.22,4.82,1.73-2.88,3.96-5.62,6.77-7.49.5-.29,2.66-1.66,3.24-1.8.94-.22,2.02-.36,2.95.07,1.08.5,2.23,1.44,2.52,2.59.36,1.44.14,3.24-.86,4.25-.72.65-1.58,1.37-2.59,1.44-.14,0-.94-.07-1.15,0-2.16.79-4.03,2.45-5.47,4.32-1.8,2.16-2.81,4.9-3.75,7.63-.22.72-1.08,4.1-1.15,4.9-.07,2.66-.14,5.33-.86,7.92-.14.5-.43.94-.79,1.37-.94.94-2.38.79-3.38-.07Z"/>
    <path class="cls-123" d="M228.3,53.15c-1.58-.79-3.02-1.94-4.03-3.38-.94-1.3-1.73-2.66-2.3-4.18-1.8-5.33-2.38-11.16-1.87-16.78-.94,0-4.54.07-5.47-.29-1.73-.72-2.38-2.88-.94-4.03,1.15-.79,5.9-1.51,7.27-1.73.29-1.3.65-2.59,1.08-3.89.79-2.66,1.73-5.4,2.81-7.99.29-.58,1.44-3.38,1.8-3.89.22-.43.65-.86.94-1.3,1.51-2.23,4.75-.79,4.39,1.8-.07.58-.14,1.15-.22,1.73-.29,1.58-2.38,11.23-2.66,12.82,3.96-.14,7.99.14,11.81,1.01,1.3.29,2.66.79,3.67,1.73,1.08,1.08,1.15,2.81.14,3.96-2.02,2.16-9,.5-11.88.22-1.66-.14-3.31-.22-4.97-.29-.22,2.16-.36,4.32-.22,6.48.29,3.17.79,6.34,2.23,9.22.5,1.01,2.16,3.17,3.31,3.38,1.37.22,2.66-.07,3.74-.86,1.8-1.37,3.38-3.17,4.03-5.33.14-.5.65-3.17.94-3.67,1.01-1.87,3.89-1.15,3.96,1.01,0,.36-.29,2.3-.36,2.74-.72,3.67-2.88,7.2-5.76,9.58-1.37,1.15-3.02,2.16-4.82,2.52-2.16.5-4.61.36-6.62-.58Z"/>
  </g>
  <g>
    <path class="cls-116" d="M245.73,70.29c.02-.59.07-1.17.12-1.75-.17-1.94-.2-3.89,0-5.85h-71.49c-.07.14-.05.26.07.36.28.19.61.2.93.21.46.05.92,0,1.38.03,7.12.07,14.23.02,21.35.03,15.11,0,30.21,0,45.32,0,1.61,0,1.64.05,1.67,1.79.04,2.3.22,4.59.6,6.85.02-.56.05-1.11.07-1.67Z"/>
    <path class="cls-105" d="M62.32,62.69H0c0,.21,0,.42.01.62.13,0,.27,0,.43,0,19.67,0,39.35,0,59.02,0,.73,0,1.45.03,2.18-.04.21-.04.41-.08.59-.2.13-.1.16-.22.1-.38Z"/>
    <path class="cls-34" d="M144.71,74.13c-.29.16-.58.31-.87.47-.55-.97-.4-2.08-.37-3.1.08-2.41-.03-4.82.08-7.22.02-.44.04-.9-.51-1-.3-.04-.62-.05-.88-.24-.11-.1-.13-.22-.06-.35h2.18c.19.18.53.1.61.44.38,3.33.08,6.68.13,10.02,0,.36-.08.7-.31.98Z"/>
    <path class="cls-115" d="M76.27,62.69h12.42c.07.14.04.26-.08.36-.35.23-.75.2-1.14.21-.92.04-1.84.03-2.77.01-2.24.05-4.47.04-6.71,0-.38-.03-.77,0-1.15-.05-.19-.02-.37-.07-.53-.19-.11-.1-.13-.22-.06-.35Z"/>
    <path class="cls-73" d="M115.72,62.69h9.81c.07.15.04.27-.09.37-.56.31-1.17.19-1.76.21-1.94.04-3.89.05-5.83,0-.45,0-.9.02-1.34-.02-.25-.01-.5-.05-.72-.21-.11-.1-.13-.22-.06-.35Z"/>
    <path class="cls-39" d="M144.71,62.93c-.18,0-.34-.05-.44-.24h9.37c.07.14.05.25-.06.35-.22.16-.47.19-.72.21-.64.04-1.27.03-1.91.02-1.25.04-2.5.04-3.75,0-.46,0-.92.03-1.37,0-.4.01-.79-.02-1.11-.34Z"/>
    <path class="cls-40" d="M93.71,62.69h5.45c.03.14,0,.26-.11.35-.51.31-1.06.19-1.6.21-.36.01-.71,0-1.07,0-.23,0-.47.01-.7,0-.35,0-.7,0-1.05,0-.3,0-.6-.03-.86-.21-.1-.1-.12-.21-.05-.34Z"/>
    <path class="cls-1" d="M93.71,62.69c0,.08,0,.16,0,.24-.24.29-.56.31-.89.33-.57.03-1.14.03-1.71,0-.57,0-1.14.03-1.71-.02-.27-.02-.52-.08-.7-.32v-.24h5.01Z"/>
    <path class="cls-109" d="M99.16,62.93c0-.08,0-.16,0-.24h4.58c.07.13.06.24-.04.34-.21.15-.44.19-.68.21-.41.02-.82.02-1.24.02-.36,0-.71,0-1.07,0-.48-.02-.97.06-1.42-.19-.04-.05-.09-.09-.13-.14Z"/>
    <path class="cls-119" d="M103.73,62.93c0-.08,0-.16,0-.24h4.14c.03.14,0,.25-.1.35-.38.25-.81.2-1.22.22-.36.01-.71,0-1.07,0-.42,0-.85.02-1.27-.04-.19-.04-.36-.11-.48-.28Z"/>
    <path class="cls-31" d="M115.72,62.69c0,.08,0,.16,0,.24-.12.17-.29.24-.48.28-.42.06-.85.05-1.27.05-.48.01-.96.01-1.45,0-.31,0-.61-.02-.88-.21-.11-.1-.13-.21-.06-.35h4.14Z"/>
    <path class="cls-91" d="M159.1,62.69h3.92c.03.05.05.1.08.15-.04.11-.11.2-.21.25-.21.09-.42.11-.64.13-.33.02-.66.01-.99.02-.28,0-.57,0-.85,0-.41-.01-.83.04-1.2-.21-.1-.09-.13-.21-.1-.34Z"/>
    <path class="cls-85" d="M111.58,62.69c0,.08,0,.16,0,.24-.18.23-.42.28-.67.31-.49.04-.97.03-1.46.02-.49-.02-.98.06-1.44-.19-.04-.05-.09-.09-.13-.14,0-.08,0-.16,0-.24h3.71Z"/>
    <path class="cls-79" d="M135.56,62.69h3.71c.07.12.06.24-.04.34-.1.08-.2.13-.32.16-.46.09-.93.05-1.39.07-.35,0-.7,0-1.05,0-.3,0-.6-.03-.86-.21-.11-.1-.12-.21-.05-.34Z"/>
    <path class="cls-68" d="M128.8,62.69h3.71c.07.12.06.23-.03.33-.1.08-.2.13-.32.16-.4.09-.81.05-1.22.07-.47,0-.94,0-1.4-.02-.24-.01-.48-.05-.68-.21-.11-.1-.12-.21-.05-.34Z"/>
    <path class="cls-124" d="M128.8,62.69c0,.08,0,.16,0,.24-.12.16-.28.23-.46.27-.3.05-.59.05-.89.05-.54-.01-1.08.06-1.62-.09-.12-.05-.22-.12-.29-.23,0-.08,0-.16,0-.24h3.27Z"/>
    <path class="cls-2" d="M153.65,62.93v-.24h3.05c.08.12.07.23-.03.33-.09.07-.2.13-.31.16-.4.09-.8.05-1.2.07-.29,0-.58,0-.87-.02-.24-.03-.47-.08-.64-.3Z"/>
    <path class="cls-48" d="M132.51,62.93c0-.08,0-.16,0-.24h3.05c0,.08,0,.16,0,.24-.12.17-.3.24-.49.28-.43.08-.87.02-1.31.06-.44-.02-.9.05-1.26-.34Z"/>
    <path class="cls-27" d="M76.27,62.69c0,.08,0,.16,0,.24-.21.27-.51.29-.8.31-.33.01-.66,0-.99,0-.21,0-.41-.02-.62-.03-.15,0-.3-.03-.44-.07-.09-.03-.18-.09-.25-.16-.05-.1-.03-.19.04-.28h3.05Z"/>
    <path class="cls-29" d="M64.94,62.69h3.05c.08.11.07.22-.01.32-.14.11-.29.16-.46.19-.21.03-.43.03-.64.03-.31,0-.62,0-.94,0-.26,0-.51-.02-.77-.08-.1-.03-.19-.09-.27-.16-.06-.11-.05-.2.03-.29Z"/>
    <path class="cls-128" d="M73.22,62.69c0,.08,0,.16,0,.24-.16.21-.38.26-.61.29-.22.02-.44.02-.67.02-.22,0-.44,0-.65,0-.22,0-.44,0-.65-.03-.17-.02-.32-.08-.46-.19-.09-.1-.09-.21-.01-.32h3.05Z"/>
    <path class="cls-122" d="M174.36,62.69c0,.08,0,.16,0,.24-.07.1-.16.17-.27.21-.33.11-.67.09-1,.1-.27,0-.55,0-.82,0-.22,0-.44-.01-.65-.06-.11-.03-.21-.08-.29-.16-.08-.1-.08-.21,0-.32h3.05Z"/>
    <path class="cls-20" d="M165.64,62.69h3.05c.07.11.07.21,0,.32-.13.11-.29.16-.45.19-.26.03-.53.03-.79.03-.15,0-.31,0-.46,0-.15,0-.31,0-.46,0-.21,0-.41-.01-.62-.06-.1-.03-.19-.08-.28-.16-.06-.1-.06-.21.01-.3Z"/>
    <path class="cls-43" d="M139.26,62.93c0-.08,0-.16,0-.24h2.83c0,.08,0,.16,0,.24-.07.1-.16.16-.26.21-.21.07-.43.08-.65.09-.22,0-.44.01-.65.01-.28,0-.56,0-.83-.04-.17-.04-.33-.11-.44-.27Z"/>
    <path class="cls-54" d="M64.94,62.69c0,.08,0,.16,0,.24-.29.34-.67.31-1.04.32-.31,0-.61.02-.92-.01-.25-.03-.49-.08-.66-.31,0-.08,0-.16,0-.24h2.62Z"/>
    <path class="cls-11" d="M168.69,62.93c0-.08,0-.16,0-.24h2.62c0,.08,0,.16,0,.24-.11.16-.27.23-.44.27-.28.05-.57.05-.86.05-.23,0-.46,0-.69-.01-.24-.03-.46-.08-.63-.3Z"/>
    <path class="cls-37" d="M165.64,62.69c0,.08,0,.16,0,.24-.17.22-.41.28-.66.3-.3.03-.61.03-.92.02-.37-.02-.76.02-1.04-.33,0-.08,0-.16,0-.24h2.62Z"/>
    <path class="cls-96" d="M156.7,62.93c0-.08,0-.16,0-.24h2.4v.24s-.08.09-.12.13c-.26.15-.54.16-.82.17-.34,0-.68.02-1.02-.03-.17-.04-.33-.11-.44-.27Z"/>
    <path class="cls-78" d="M70.17,62.69c0,.08,0,.16,0,.24-.11.15-.26.22-.43.26-.22.04-.44.04-.66.04-.28,0-.55,0-.82-.09-.11-.04-.2-.11-.27-.21,0-.08,0-.16,0-.24h2.18Z"/>
    <path class="cls-93" d="M241.89,81.07c.08-3.84.91-5.27,3.98-6.26-.08-.51-.15-1.03-.21-1.54-.04-1,.03-1.99.07-2.98,0-.06,0-.12.01-.18-.23-1.88-.36-3.78-.31-5.7.03-1.21-.28-1.52-1.38-1.52-22.51.04-45.01.03-67.52.03-.4.49-.37,1.13-.37,1.7-.01,3.39-.01,6.79-.04,10.18,0,.36.17.59.41.79.34.32.77.41,1.18.54,2.9.88,5.77.74,8.61-.33.94.01,1.83-.59,2.8-.23,1.07.14,1.96.75,2.85,1.36,1.22.84,2.28,1.93,3.55,2.7.91.53,1.89.83,2.9,1.02.74.07,1.5-.09,2.23.14.17.04.34.08.51.09.49.05.99-.07,1.45.2.89.34,1.82.51,2.75.66,2.53,1.22,3.91,3.45,4.52,6.3.79,3.72.22,7.34-.76,10.92-.22.8-.45,1.6-.49,2.44-.06,1.59.63,2.88,1.73,3.07,2.31.39,4.24-.76,3.47-3.84-.13-.5-.27-.99-.47-1.46-2.29-5.48-2.08-10.93.48-16.18,2.1-4.3,5.66-6.41,10.02-6.75,2.63-.2,4.2,2.73,3.03,5.31-.16.35-.39.67-.59,1-1.02,1.69-.9,3.5.32,4.78,1.16,1.21,3.21,1.27,4.51.13,1.15-1.01,1.3-2.72.37-4.55-.35-.69-.78-1.34-1.01-2.1-.56-1.9-.16-3.68,1.06-4.64,2.16-1.7,7.07-1.21,7.99,2.97.89,4.05,1.28,8.14,1.19,12.29-.09,4.18-.54,8.31-1.62,12.35-.46,1.73.26,2.97,1.85,3.42.86.24,1.73.21,2.57-.17,1.27-.57,1.74-1.65,1.31-3.07-2.24-7.44-3.1-15.08-2.95-22.89Z"/>
    <path class="cls-46" d="M62.17,64.16c0-.44.01-.88-.29-1.23-20.63,0-41.25,0-61.88-.02.03,1.07.09,2.15.2,3.22,0-.05.38,3.08.27,2.32.39,2.94.8,5.86.98,8.81.97-.22,1.87-.67,2.78-1.05,2.72-1.14,4.15-.6,5.66,2.14.43.79.76,1.63.98,2.51.53,2.09.77,4.23.61,6.37-.4,5.34-.72,10.69-1.82,15.94-.36,1.7-.67,3.42-.9,5.15-.16,1.2-.06,2.43.99,3.21,2,1.48,4.46.5,5.15-2.02.23-.86.23-1.72.11-2.6-.33-2.31-.71-4.62-.97-6.95-.6-5.33-.94-10.69-.33-16.05.23-2.02.61-4.01,1.81-5.67.81-1.12,1.9-1.59,3.19-1.28,1.23.29,1.61,1.37,1.82,2.55.1.54.15,1.1.17,1.65.06,3.14-.55,6.16-1.51,9.09-.31.95-.34,1.86-.02,2.79.45,1.3,1.27,1.81,2.57,1.62,1.15-.17,1.9-1.01,2.02-2.28.06-.64-.01-1.26-.15-1.89-.69-3.21-1.31-6.44-1.17-9.78.14-3.34,1.45-5.22,4.21-6.19,3.35-1.17,7.23,1,7.42,5.59.24,5.76-.4,11.32-1.71,16.85-.38,1.61-1.02,3.16-1.04,4.86-.03,1.88.93,3.32,2.55,3.82,2.65.82,5.08-1.67,4.6-4.81-.44-2.82-1.16-5.57-1.54-8.41-.56-4.21-1.05-8.42-.6-12.7.13-1.19.75-1.86,1.71-2.22,2.21-.82,3.95.33,4.34,2.85.04.24.06.48.12.7.38,1.46,1.67,2.46,3.04,2.36,1.34-.1,2.26-1.08,2.45-2.71.1-.86.07-1.75.18-2.61.27-2.15,2.34-3.1,3.93-1.81.7.57,1.35,1.21,2.09,1.71,2.64,1.79,5.03,1.68,7.49-.28.5-.36.51-.91.5-1.48-.1-4.03-.05-8.07,0-12.1Z"/>
    <path class="cls-131" d="M77.8,62.93c2.32,0,4.65,0,6.97,0,.37.46.35,1.03.35,1.58,0,4.84,0,9.67,0,14.51,0,.55.02,1.12-.34,1.58h0c-.53.17-1.06.14-1.59,0-.95-.21-1.35-1.11-1.88-1.83-.45-.61-.83-1.28-1.38-1.81-.64-.62-1.37-.61-2.13-.43-.58-1.09-.43-2.31-.4-3.47.06-2.54.1-5.07-.02-7.61-.04-.87-.07-1.75.41-2.52Z"/>
    <path class="cls-19" d="M117.69,62.93c2.03,0,4.07,0,6.1,0,.67.74.59,1.69.53,2.59-.21,3.32-.13,6.65-.2,9.98,0,.32-.01.64-.01.95,0,.82-.3,1.28-1.12,1.15-.18-.03-.36-.01-.52.12-.93.32-1.78.91-2.79.97-2.25.33-2.36.22-2.33-2.19.05-3.55,0-7.11,0-10.66,0-.98-.04-1.97.32-2.91Z"/>
    <path class="cls-112" d="M84.78,80.6c0-5.89,0-11.78,0-17.67.94,0,1.89,0,2.83,0,.42.54.34,1.19.34,1.82.03,4.08-.03,8.17.03,12.25-.68,1.61-1.36,3.22-3.2,3.6Z"/>
    <path class="cls-5" d="M147.11,62.93h3.92c.29.35.34.78.34,1.22.02,3.16.04,6.32-.01,9.48,0,.6,0,1.31-.77,1.48-1.08-.73-2.25-1.18-3.49-1.4-.29-.39-.34-.87-.34-1.35-.01-2.69-.01-5.39,0-8.08,0-.48.03-.96.35-1.34Z"/>
    <path class="cls-73" d="M127.49,62.93c.29,0,.58,0,.87,0,.38.35.35.84.37,1.32.15,5.16-.09,10.32-.04,15.48.04,4.45,0,8.9,0,13.35,0,4.13-.05,8.25-.03,12.38,0,.62.05,1.28-.24,1.86-.39.15-.77.16-1.16,0-.19.01-.36-.03-.47-.22.31-.73.41-1.5.39-2.3-.07-3.95-.04-7.9.09-11.85,0-.24-.03-.47-.17-.67.19-2.84.58-5.68.21-8.53-.13-.98-.3-1.95-.46-2.92.22-.81.17-1.65.16-2.47-.09-4.83.27-9.66.15-14.49,0-.36-.02-.73.34-.93Z"/>
    <path class="cls-75" d="M96.32,62.93c.36,0,.73,0,1.09,0,.29.27.52.6.47,1.02-.13,1.18.04,2.36,0,3.53-.09,3.26-.27,6.51-.01,9.77-.6,1.52-.79,3.14-.93,4.77-.1,2.3-.2,4.6.05,6.9v-.02c.17,1.43,0,2.91.42,4.32.15,1.47.92,2.77.89,4.29-.03,1.44-.57,2.46-1.71,3.12-.2.11-.39.12-.57-.04-.47-1.71-.21-3.45-.16-5.18.04-1.37.12-2.74.01-4.11-.02-.32-.07-.63-.05-.95.22-4.19.17-8.38.11-12.58-.04-2.56.12-5.14.04-7.7-.06-1.9.05-3.79.03-5.69,0-.52-.03-1.04.32-1.47Z"/>
    <path class="cls-92" d="M153.65,62.93h.65c.35,1.06.27,2.18.19,3.25-.17,2.45-.09,4.9,0,7.35.03.75.08,1.5-.02,2.25-.07.54.01,1.02.29,1.47-.98,1.98-.57,3.97-.03,5.97-.35.64-.08,1.32-.07,1.98.03,2.61-.18,5.23.14,7.83-.6.35-1.2.28-1.8-.03-.55-.36-.42-.92-.4-1.48.09-2.77.17-5.54-.05-8.31.2-1.66.57-3.31.24-5-.2-.57-.13-1.18-.13-1.76,0-3.9-.01-7.79,0-11.69,0-.63-.08-1.29.35-1.82h.65Z"/>
    <path class="cls-16" d="M96.11,100.62c.16,0,.33.02.49.03-.68.37-1.35.32-2.02-.06-.22-.33-.3-.7-.31-1.11-.05-2.74.16-5.47.08-8.21,0-.14.02-.29.03-.43.4-2.61.42-5.23.22-7.86-.08-1.1-.17-2.19-.25-3.29-.19-4.11-.12-8.22-.07-12.33.01-.95-.06-1.9-.04-2.85.01-.55-.03-1.12.34-1.58.36,0,.73,0,1.09,0,.58,1.03.28,2.17.28,3.26,0,2.97.08,5.94.02,8.91-.05,2.93-.05,5.87-.03,8.8.02,2.61-.22,5.22-.04,7.83.08,1.17-.03,2.37-.1,3.54-.09,1.55.16,3.09-.02,4.63-.04.3.13.53.32.72Z"/>
    <path class="cls-30" d="M72.57,62.93c.22,0,.44,0,.65,0,0,0,0,0,0,0,.4.98.29,2.02.28,3.04-.04,3.87-.09,7.74-.02,11.62.04,2.25-.07,4.51-.08,6.77-.02,2.13-.01,4.26-.01,6.4,0,7.02-.11,14.05-.08,21.07,0,.58.11,1.2-.26,1.72-.24.1-.47.13-.7-.03-.19,0-.36-.03-.48-.22.46-2.85-.04-5.73.18-8.59.04-.55.25-1.16-.1-1.7.22-3.15.55-6.31.39-9.48-.11-2.25-.27-4.5-.41-6.75.62.14.19.68.31.92,0,.24.23.03.09.09-.05.02-.07,0-.08-.08-.34-5.01.17-10.03,0-15.04-.1-2.76,0-5.52.03-8.27,0-.51-.04-1.04.31-1.47Z"/>
    <path class="cls-25" d="M128.36,107.3v-19.51c0-4.82-.02-9.65,0-14.47.02-2.61.2-5.22.13-7.83-.02-.84.03-1.72-.13-2.57.15,0,.29,0,.44,0,.22,0,.44,0,.65,0,.43.45.52,1.04.5,1.65-.03.72.07,1.44.01,2.14-.25,3.44-.05,6.9-.27,10.34-1.02,3.34-.62,6.75-.44,10.16.08,3.6.13,7.2,0,10.8-.11,2.81.13,5.63-.06,8.44-.04.59,0,1.2-.82.85Z"/>
    <path class="cls-95" d="M106.57,62.93c.44,0,.87,0,1.31,0,0,0,0,0,0,0,.39.5.33,1.11.33,1.69-.02,3.04.05,6.08,0,9.11-.01.72.13,1.41.17,2.12-1.4,1.68-1.03,3.55-.51,5.44-.23,1.93-.09,3.88-.09,5.82,0,.41.23.74.35,1.12-.74.52-1.48.52-2.24.06-.39-.59-.08-1.22-.07-1.83.02-1.41-.09-2.81-.13-4.22.24-1.16.75-2.25.64-3.48-.32-2.05-.1-4.11-.1-6.16-.01-2.65-.03-5.31.01-7.97,0-.59-.06-1.2.33-1.7Z"/>
    <path class="cls-127" d="M73,113.5c0-4.95-.03-9.9.01-14.85.03-3.69.07-7.38.04-11.08-.03-3.93.16-7.85.07-11.78-.06-2.46.04-4.91.06-7.37.02-1.83.02-3.66.03-5.49.15,0,.29,0,.44,0,.3.33.44.72.41,1.18-.24,5.11-.03,10.23-.12,15.34-.02,1.34-.2,2.68.01,4.02,0,.48.1.97-.07,1.45-.01.23-.03.45-.04.68-.22.55.05,1.17-.17,1.72,0,.3-.01.6-.02.9-.18,1.35-.18,2.7,0,4.05.15,2.29.3,4.58.46,6.88,0,2.04.17,4.09.02,6.13-.14,2.01,0,4.02-.08,6.02-.02.55-.04,1.11-.14,1.65-.1.55-.36.87-.91.56Z"/>
    <path class="cls-121" d="M122.48,77.73c1.35-.14,1.36-1.11,1.34-2.29-.03-1.69.23-3.46.07-5.08-.23-2.5.54-4.97-.1-7.42.58,0,1.16,0,1.74,0,.07,0,.14,0,.22,0,.63,1.32.46,2.79.43,4.17-.06,3.16-.21,6.32.03,9.48.05.7.18,1.53-.69,1.87-.92-.74-1.96-.83-3.05-.71Z"/>
    <path class="cls-55" d="M152.99,62.93c0,3.92,0,7.83,0,11.75,0,1.18.04,2.37-.22,3.53-.52-1.21-1.22-2.27-2.18-3.1.49-.43.44-1.04.44-1.63,0-3.51,0-7.03,0-10.54.65,0,1.31,0,1.96,0Z"/>
    <path class="cls-103" d="M125.52,78.44c.35-.44.51-.99.43-1.54-.41-2.98-.23-5.97-.13-8.95.05-1.69-.2-3.35-.07-5.03.58,0,1.16,0,1.74,0,0,1.18.02,2.36,0,3.54-.06,3.06-.15,6.12-.21,9.18-.03,1.56,0,3.13,0,4.69,0,.31.07.71-.43.48-.38-.83-.74-1.68-1.32-2.38Z"/>
    <path class="cls-28" d="M94.58,62.93c0,4.06,0,8.11,0,12.17,0,1.53.07,3.07-.24,4.59-.27-1.46-.63-2.88-1.71-3.92-.13-.38-.15-.77-.15-1.17.01-3.36,0-6.73,0-10.09,0-.55-.03-1.12.34-1.58.29,0,.58,0,.87,0,.29,0,.58,0,.87,0Z"/>
    <path class="cls-87" d="M92.84,62.93c0,3.82,0,7.63,0,11.45,0,.47.05.96-.2,1.39-.54-.43-1.16-.63-1.79-.82-.23-.38-.31-.8-.31-1.24-.01-3.09-.02-6.19,0-9.28,0-.57.12-1.11.55-1.49.58,0,1.16,0,1.74,0Z"/>
    <path class="cls-80" d="M87.98,77c-.62-.22-.36-.8-.36-1.22-.02-4.29-.01-8.57-.01-12.86.36,0,.73,0,1.09,0,.22,0,.44,0,.65,0,.39.5.33,1.11.34,1.69,0,2.72.02,5.44,0,8.16,0,.78.13,1.48.58,2.09-1.1.27-1.8,1.06-2.28,2.13Z"/>
    <path class="cls-8" d="M97.88,77.25c-.4-.46-.49-1.04-.46-1.64.12-2.76.09-5.53.13-8.29.02-1.44.3-2.95-.14-4.4.58,0,1.16,0,1.74,0,0,0,0,0,0,0,.4.5.34,1.11.34,1.7,0,2.82.01,5.64,0,8.46,0,.84.1,1.66.13,2.5-.58.55-1.16,1.11-1.74,1.66Z"/>
    <path class="cls-61" d="M166.94,62.93c.15,0,.29,0,.44,0,.56.74.52,1.64.49,2.5-.07,2.1-.22,4.19-.16,6.29.08,3.17-.09,6.35-.02,9.52,0,.34-.14.72.14,1.02-.01,1.43-.03,2.87-.04,4.3-.4.63-.06,1.31-.09,1.96-.12,2.8.04,5.61-.09,8.41-.07,1.4.03,2.84.08,4.26.03.78.13,1.6-.41,2.26-.15.16-.33.16-.52.12-.56-.99-.18-2.09-.18-3.11,0-2.21-.18-4.42-.09-6.63.08-2.06.06-4.12.07-6.17.02-2.44.24-4.89,0-7.33-.11-1.14.09-2.29.04-3.45-.14-3.99.09-7.98.04-11.97,0-.67-.05-1.36.29-1.97Z"/>
    <path class="cls-103" d="M127.09,92.27c.59.15.4.68.39,1.07-.09,3.08.12,6.16-.11,9.25-.08,1.09.08,2.27.12,3.41.02.58-.09,1.03-.72,1.09-1.59-.85-1.97-2.41-1.7-4.08.47-2.89,1.16-5.73,1.75-8.59.3-.46-.02-1.02.21-1.5.02-.22.03-.44.05-.65Z"/>
    <path class="cls-35" d="M117.69,62.93c.37.81-.02,1.62-.02,2.44.03,3.9.01,7.8.01,11.7q0,1.59,1.46,1.6c.18,0,.36.01.54.02-1.21.43-2.39.25-3.56-.17-.6-1.16-.14-2.41-.18-3.6-.1-3.43.16-6.86.1-10.29-.01-.58-.07-1.2.32-1.7h1.31Z"/>
    <path class="cls-108" d="M128.36,107.3c.23-.04.58.09.56-.34-.12-2.58.14-5.16-.09-7.74-.1-1.11.15-2.25.17-3.37.03-1.58.03-3.16,0-4.74-.02-1.31.03-2.6.24-3.89.36,2.38.73,4.76,1.09,7.15.23,3.51.07,7.02.11,10.52,0,.74.08,1.51-.35,2.18-.91.61-1.87.69-2.86.25.37,0,.74,0,1.11-.01Z"/>
    <path class="cls-59" d="M167.16,103.48c.46-1.82.2-3.69.11-5.51-.05-.89.15-1.7.13-2.56-.05-2.6-.03-5.2-.01-7.8,0-.39-.19-.92.4-1.06.28,3.73,1.01,7.41,1.13,11.16.24.47-.08,1.03.21,1.48.04.05.05.11.01.17.14.68.14,1.36,0,2.04-.22.93-.38,1.92-1.48,2.11-.17.09-.34.11-.5-.03Z"/>
    <path class="cls-114" d="M110.93,62.93c.22,0,.44,0,.65,0,.29,0,.58,0,.87,0,.37.46.35,1.03.35,1.58,0,3.3.02,6.6,0,9.89,0,.7.06,1.46-.58,1.95l-1.31-.71c-.41-.8-.41-1.69-.4-2.55.02-3.02.04-6.03.13-9.05.01-.4.03-.8.3-1.12Z"/>
    <path class="cls-98" d="M166.94,62.93c-.08,2.68.07,5.35-.13,8.03-.15,2.05.1,4.13.06,6.19-.05,2.33-.02,4.67-.08,7.01-.06,2.31,0,4.64,0,6.96,0,1.98-.18,3.98-.01,5.94.11,1.38.01,2.74.11,4.1.06.8-.18,1.55-.16,2.33-.83.24-.69-.5-.72-.93-.09-1.15-.08-2.31-.06-3.45.06-3.1.08-6.19.02-9.28,0-.16.02-.32.09-.46.24-2.97.57-5.94.21-8.93-.39-2.2-.13-4.42-.12-6.63,0-3.09.04-6.19.05-9.28,0-.55-.06-1.12.32-1.59.15,0,.29,0,.44,0Z"/>
    <path class="cls-4" d="M112.22,76.35c.2-.69.25-1.39.24-2.11-.01-3.77,0-7.54,0-11.32.51,0,1.02,0,1.53,0,.35.43.31.96.28,1.46-.2,3.86-.13,7.71-.07,11.57,0,.52,0,1.04-.46,1.37-.55-.25-1.07-.54-1.52-.98Z"/>
    <path class="cls-7" d="M108.38,75.85c-.62-.28-.51-.88-.51-1.42,0-3.83,0-7.67,0-11.5.51,0,1.02,0,1.53,0,.37.46.33,1.03.33,1.58,0,2.52.03,5.05,0,7.57-.02,1.11,0,2.19.33,3.24-.61-.04-1.16.19-1.67.53Z"/>
    <path class="cls-130" d="M116.38,62.93c0,5.2,0,10.4-.25,15.59-.45-.13-.91-.23-1.28-.58-.28-1.53-.12-3.08-.11-4.62.03-2.9-.07-5.8-.01-8.7.01-.62-.07-1.3.55-1.7.14,0,.29,0,.43,0,.22,0,.44,0,.66,0Z"/>
    <path class="cls-53" d="M129.69,77.06c-.46-1.57-.18-3.18-.19-4.77-.02-2.58.12-5.16.16-7.74,0-.54-.13-1.08-.21-1.62.51,0,1.02,0,1.53,0,.37.22.48.58.44,1-.27,3.29-.02,6.59-.11,9.89-.01.48-.05.95-.3,1.37-.55.53-.92,1.21-1.32,1.87Z"/>
    <path class="cls-117" d="M90.26,74.87c-.82.04-.92-.51-.92-1.23.02-3.57,0-7.14,0-10.71.58,0,1.16,0,1.74,0-.19.64-.23,1.3-.22,1.97,0,3.35-.01,6.69-.02,10.04-.2-.02-.39-.05-.59-.07Z"/>
    <path class="cls-31" d="M110.05,75.32c-.72-.28-.76-.99-.73-1.63.18-3.59.02-7.18.08-10.77.51,0,1.02,0,1.53,0,.01,4.24-.24,8.48-.02,12.72-.28-.11-.57-.21-.85-.32Z"/>
    <path class="cls-89" d="M74.31,62.93c.36,0,.73,0,1.09,0,.71,1.07.33,2.32.36,3.46.09,3.95-.1,7.91,0,11.87,0,.16-.05.31-.12.45-.36.89-.71,1.78-1.07,2.67-.51-.46-.56-1.11-.54-1.74.11-3.88,0-7.75.15-11.63.07-1.69-.14-3.4.14-5.08Z"/>
    <path class="cls-84" d="M115.29,62.93c-.27.47-.22.99-.22,1.51,0,4,0,8,0,12,0,.51.06,1.04-.21,1.51-.43-.07-.79-.32-1.12-.61.45-1.49.05-3,.09-4.5.09-3.3-.02-6.61.15-9.91.44,0,.87,0,1.31,0Z"/>
    <path class="cls-24" d="M77.8,62.93c0,4.53,0,9.07,0,13.6-.36.25-.72.51-1.07.76-.46-.32-.51-.85-.52-1.37-.03-1.31-.11-2.61.04-3.92.23-1.98-.16-3.97-.05-5.95.06-1.06-.02-2.15.52-3.12.36,0,.73,0,1.09,0Z"/>
    <path class="cls-86" d="M99.62,75.59c-.57-.27-.46-.83-.46-1.34,0-3.78,0-7.55,0-11.33.51,0,1.02,0,1.53,0,.26,1.63.1,3.29.17,4.93.08,2.05-.08,4.1,0,6.15.02.42.24.74.33,1.12-.52.15-1.04.31-1.56.46Z"/>
    <path class="cls-69" d="M104.17,62.93c.44,0,.87,0,1.31,0,.26.32.32.71.31,1.11-.07,2.5.14,5-.13,7.5-.09.8.04,1.58.08,2.37.05.92.3,1.92-.5,2.67-.44-.31-.89-.61-1.33-.92-.25-2.25-.07-4.5-.08-6.75,0-1.54-.09-3.09.01-4.63.03-.47,0-.96.33-1.35Z"/>
    <path class="cls-56" d="M76.71,62.93c-.33,2.89-.11,5.77-.09,8.66,0,1.22-.12,2.48-.14,3.72,0,.68.06,1.34.24,1.98-.36.47-.73.95-1.09,1.42-.45-2.14-.17-4.31-.2-6.46-.04-3.11-.03-6.21-.04-9.32.29,0,.58,0,.87,0,.15,0,.29,0,.44,0Z"/>
    <path class="cls-59" d="M167.83,82.25c-.32.15-.46.05-.45-.35.01-2.37.02-4.75.02-7.12,0-1.93-.06-3.86,0-5.79.07-2.02.23-4.04-.02-6.06.29,0,.58,0,.87,0,.29.35.36.79.36,1.22-.02,1.66.33,3.32.13,4.95-.28,2.33.06,4.65-.15,6.97-.06.62,0,1.26.07,1.89-.05,1-.68,1.85-.63,2.88-.23.39.02.86-.18,1.25.04.06.03.12,0,.17Z"/>
    <path class="cls-83" d="M105.25,76.57c.29-1.12.31-2.23.07-3.38-.23-1.09.17-2.18.16-3.28,0-2.33,0-4.66,0-6.99.36,0,.73,0,1.09,0-.1,5.27.25,10.56-.24,15.83-.26-.79-.57-1.54-1.08-2.18Z"/>
    <path class="cls-51" d="M137.52,62.93c.51,0,1.02,0,1.52,0,.47.61.35,1.36.31,2.05-.12,2.4.07,4.81.02,7.21-.02.83-.13,1.65-.13,2.48,0,.66-.28.95-.9.69-.31,0-.62.02-.88-.22-.22-1.14-.25-2.27-.12-3.43.28-2.49-.15-4.99.04-7.49.03-.43-.09-.87.13-1.28Z"/>
    <path class="cls-10" d="M154.75,77.24c-.63.29-.7-.19-.66-.65.35-3.58-.29-7.17.14-10.77.11-.91-.02-1.93.07-2.89.29,0,.58,0,.87,0,.49.27.41.76.42,1.24.09,3.96-.06,7.92.02,11.88-.29.4-.57.8-.86,1.19Z"/>
    <path class="cls-70" d="M101.18,75.13c-.54-.07-.73-.4-.71-.98.06-2.45.2-4.9.11-7.34-.05-1.31-.13-2.59.11-3.88.36,0,.73,0,1.09,0,.67,1.37.34,2.87.46,4.31.2,2.36-.22,4.73-.05,7.1.02.28,0,.55-.19.78-.27,0-.54,0-.81,0Z"/>
    <path class="cls-9" d="M154.79,93.02c-.42-.06-.49-.37-.49-.76,0-2.72,0-5.44,0-8.16,0-.38.09-.7.42-.88.5,1.29,1.02,2.57,1.4,3.91.33,1.19.49,2.39.34,3.61-.14,1.11-.5,2.07-1.68,2.28Z"/>
    <path class="cls-133" d="M130.11,107.06c.1-4.23-.24-8.48.24-12.7.57,2.82,1.21,5.63,1.68,8.47.33,1.97-.41,3.37-1.92,4.23Z"/>
    <path class="cls-82" d="M131.01,75.19c.08-3.78-.27-7.58.17-11.36.04-.34-.07-.62-.2-.9.44,0,.87,0,1.31,0,.39.34.34.81.37,1.29.12,2.05-.1,4.09-.06,6.13.03,1.29.3,2.59-.13,3.87-.08.19-.25.28-.4.39l-1.06.57Z"/>
    <path class="cls-42" d="M72.57,62.93c-.16,8.42.11,16.84-.28,25.34-.34-.49.07-1.12-.38-1.49-.04-.05-.04-.11,0-.17-.22-.47.07-1.03-.2-1.5-.22-.53-.24-1.1-.23-1.67.39-1.45-.04-2.91.03-4.37.12-2.44.16-4.9.09-7.35-.08-2.53.06-5.07-.02-7.6-.01-.46.05-.86.34-1.2.22,0,.44,0,.65,0Z"/>
    <path class="cls-67" d="M132.07,74.62c.07-.08.14-.16.22-.24.44-.4.96-.34,1.47-.34.81.07,1.07-.39,1.05-1.22-.04-2.72,0-5.44.09-8.17.02-.58-.09-1.19.22-1.73.15,0,.29,0,.44,0,.29,0,.58,0,.87,0,.29.35.34.78.34,1.22.02,3.04.04,6.09-.01,9.13-.02,1.27-.31,1.49-1.45,1.35-1.08-.05-2.16-.16-3.23-.02Z"/>
    <path class="cls-62" d="M74.31,62.93c.16.32.23.66.22,1.03-.08,3.18-.32,6.37-.16,9.53.13,2.63-.49,5.28.19,7.89-.15.69-.31,1.38-.46,2.07-.08.11-.15.11-.23,0-.41-.74-.51-1.55-.42-2.38.4-3.85.11-7.71.19-11.56.03-1.61-.12-3.24.14-4.84.1-.62-.12-1.16-.12-1.74.22,0,.44,0,.65,0Z"/>
    <path class="cls-17" d="M135.31,74.63c.95.12,1.15-.43,1.14-1.36-.04-3.45-.01-6.9-.01-10.35.36,0,.73,0,1.09,0,.32,1.07.31,2.19.14,3.26-.18,1.12.09,2.19.11,3.28.03,1.81-.47,3.6-.09,5.41.01.06-.13.17-.21.25-.74-.07-1.47-.21-2.16-.5Z"/>
    <path class="cls-94" d="M61.67,77.74c.14-.33.23-.66.22-1.03-.14-3.34.03-6.69-.06-10.03-.03-1.26.21-2.5.06-3.75.15,0,.29,0,.44,0,.22,0,.44,0,.65,0,.35.65.32,1.38.27,2.08-.25,3.38-.04,6.76-.05,10.14,0,.69-.04,1.34-.41,1.92-.37.22-.74.45-1.11.67Z"/>
    <path class="cls-90" d="M101.99,75.12c-.25-1.45-.2-2.87-.05-4.34.15-1.57-.08-3.18-.13-4.78-.03-1.02-.02-2.05-.04-3.07.44,0,.87,0,1.31,0,.35.42.35.94.35,1.46.01,3.16.01,6.33,0,9.49,0,.51.04,1.04-.35,1.45-.36-.07-.73-.14-1.09-.2Z"/>
    <path class="cls-44" d="M176.54,62.93c-.04,3.1-.19,6.21-.07,9.31.04,1.12-.33,2.25.07,3.36-.43-.17-.87-.33-1.3-.5-.29-.35-.3-.79-.31-1.22-.04-3.39.02-6.78.1-10.17,0-.28.04-.55.21-.77.44,0,.87,0,1.31,0Z"/>
    <path class="cls-49" d="M147.11,62.93c0,3.59,0,7.18-.01,10.77-.58.07-1.16.14-1.73.21.22-3.21-.02-6.43.14-9.63.02-.47-.04-.95.29-1.34.44,0,.87,0,1.31,0Z"/>
    <path class="cls-134" d="M63.85,62.93c.36,0,.73,0,1.09,0,0,0,0,0,0,0,.26.32.32.71.32,1.11,0,3.69.04,7.38,0,11.08,0,.73-.13,1.36-.97,1.39-.29.09-.58.18-.88.27.28-2.51.13-5.03.22-7.55.06-1.71.06-3.45,0-5.18-.01-.39-.05-.79.22-1.12Z"/>
    <path class="cls-3" d="M63.85,62.93c.23,4.28-.07,8.55.01,12.83,0,.46-.21.73-.44,1.02-.21.1-.42.19-.63.29.06-2.12.29-4.26.14-6.36-.19-2.61.15-5.19.06-7.78.29,0,.58,0,.87,0Z"/>
    <path class="cls-81" d="M173.05,62.93c.36,0,.73,0,1.09,0,.29.35.3.79.31,1.22.05,3.26-.01,6.53.1,9.8.01.32-.02.63-.19.91-.44.01-.88-.02-1.3-.2-.6-.42-.53-1.07-.46-1.71.25-2.17.05-4.36.1-6.53.03-1.17-.12-2.36.36-3.48Z"/>
    <path class="cls-32" d="M155.61,76.05c-.58-.46-.4-1.17-.4-1.75,0-2.1.29-4.21.12-6.28-.14-1.7.21-3.41-.16-5.09.44,0,.87,0,1.31,0,.19.77.2,1.56.19,2.35-.05,3.27-.09,6.54,0,9.81-.35.32-.71.65-1.06.97Z"/>
    <path class="cls-106" d="M152.54,83.2c.42.36.48.86.45,1.39-.11,2.53.23,5.08-.19,7.61-.04.24.12.52.19.79-1.34-.51-1.96-1.41-1.93-3.03.04-2.36.79-4.56,1.48-6.76Z"/>
    <path class="cls-15" d="M71.91,62.93c0,3.59-.03,7.18.01,10.77.03,2.7-.38,5.4-.02,8.11.08.58.06,1.2-.44,1.64-.21-1.11-.41-2.23-.62-3.34.27-1.09.06-2.2.05-3.29-.02-4.11.13-8.21.01-12.32-.01-.54-.03-1.12.34-1.58.22,0,.44,0,.65,0Z"/>
    <path class="cls-111" d="M103.08,75.32c0-4.13,0-8.26,0-12.4.22,0,.44,0,.65,0,.15,0,.29,0,.44,0-.12,3.23.1,6.47-.11,9.71-.07,1,.3,2.03-.15,3.02-.28-.11-.56-.22-.83-.33Z"/>
    <path class="cls-41" d="M73,113.5c1.25-.11.72-1.33.73-1.85.04-2.42.05-4.83.1-7.25.04-1.76.05-3.51.27-5.26.31,1.72.56,3.46.66,5.22.41,2.8.48,5.62.2,8.44-.71,1-1.6,1.16-2.63.71.22,0,.44,0,.67,0Z"/>
    <path class="cls-97" d="M64.29,76.51c.5-.26.67-.65.67-1.29-.03-4.1-.02-8.19-.02-12.29.29,0,.58,0,.87,0,.34.36.41.8.43,1.3.13,3.56-.31,7.12.07,10.68.06.6-.01,1.21-.72,1.38-.43.07-.87.15-1.3.22Z"/>
    <path class="cls-132" d="M166.51,62.93c0,5.83.05,11.67-.24,17.5-.28-.9-.57-1.8-.85-2.7-.21-3.25.04-6.49-.03-9.74-.03-1.39.14-2.77.1-4.15-.01-.38.01-.71.36-.91.22,0,.44,0,.65,0Z"/>
    <path class="cls-65" d="M174.35,74.85c-.33-1.64-.15-3.31-.2-4.97-.07-2.32-.02-4.64-.02-6.95.07,0,.14,0,.22,0,.29,0,.58,0,.87,0,.28,2.27-.08,4.53-.01,6.8.05,1.79.01,3.58.01,5.36-.31.02-.6-.07-.87-.25Z"/>
    <path class="cls-57" d="M65.59,76.28c.73-.65.43-1.54.4-2.32-.07-1.91-.19-3.8-.04-5.73.13-1.74.13-3.54-.14-5.3.36,0,.73,0,1.09,0,.35.43.24.97.26,1.47.09,3.5-.19,7,.01,10.5.02.43-.01.87-.16,1.28-.04.05-.08.1-.12.14-.43-.01-.86-.03-1.29-.04Z"/>
    <path class="cls-6" d="M165.86,62.93c-.05,1.15-.14,2.31-.15,3.46-.04,3.52-.04,7.04-.08,10.55,0,.26-.14.52-.21.79-.23-.37-.45-.74-.68-1.12-.45-1.58-.25-3.22-.2-4.81.08-2.4-.15-4.8.03-7.2.04-.6.03-1.18.42-1.66.22,0,.43,0,.65,0,.07,0,.15,0,.22,0Z"/>
    <path class="cls-13" d="M168.65,77.95c-.62-.69-.44-1.58-.38-2.37.11-1.57-.05-3.13,0-4.69.03-1.1.38-2.2.18-3.29-.28-1.55,0-3.12-.2-4.67.14,0,.29,0,.43,0,.22,0,.44,0,.66,0,.26.35.11.76.12,1.15.12,3.99-.21,7.99.1,11.98-.43.56-.65,1.24-.92,1.9Z"/>
    <path class="cls-113" d="M160.41,62.93c.29,0,.58,0,.87,0,.53.31.44.9.41,1.37-.22,2.64.26,5.29-.08,7.93-.1.78.27,1.55.11,2.35-.36-.08-.73-.16-1.09-.23-.2-.12-.51-.07-.6-.4-.03-2.65.11-5.31.03-7.96-.02-.55.02-1.11-.06-1.66-.08-.54.01-1.03.42-1.39Z"/>
    <path class="cls-119" d="M163.02,62.93c.36,0,.73,0,1.09,0,.26.96.19,1.94.24,2.93.1,2.05-.18,4.09-.01,6.15.1,1.26.41,2.6-.44,3.75-.29-.21-.59-.42-.88-.64-.25-.84-.28-1.72-.27-2.59.03-3.09.02-6.19.14-9.28,0-.12.07-.22.14-.32h0Z"/>
    <path class="cls-23" d="M166.06,89.36c.54,4.31.09,8.65.24,12.97.01.42-.24,1.01.43,1.16.15,0,.29,0,.44,0,.17.01.33.02.5.03-.91.37-1.78.46-2.46-.5-.08-2.57-.06-5.15-.03-7.72.15-2,.5-3.97.88-5.93Z"/>
    <path class="cls-110" d="M71.93,103.01c.52-.22.42.2.42.49-.02,1.22,0,2.44-.07,3.66-.1,1.83.26,3.66,0,5.5-.05.35-.02.62-.42.64-.93-.43-1.02-1.33-1.07-2.25-.12-2.04.52-3.97.77-5.95.09-.7.25-1.39.37-2.08Z"/>
    <path class="cls-45" d="M145.8,62.93c0,3.2,0,6.4,0,9.61,0,.53.01,1.03-.44,1.37-.22.08-.44.15-.65.23-.11-3.31.22-6.62-.13-9.92-.04-.42.08-.86.13-1.28.36,0,.73,0,1.09,0Z"/>
    <path class="cls-38" d="M68.21,62.93c.29,0,.58,0,.87,0,.41.42.48.95.45,1.52-.2,3.75-.06,7.5-.14,11.26,0,.49.18,1.16-.56,1.32-.3-.15-.61-.3-.91-.45.16-2.99-.05-5.99.12-8.98.08-1.42.1-2.89-.03-4.33.05-.12.12-.23.2-.33Z"/>
    <path class="cls-14" d="M142.97,62.93c.84-.06,1.23.18.93,1.24-.17.62-.05,1.34-.05,2.01,0,2.81,0,5.61,0,8.42-.29.24-.58.48-.87.72-.35-.29-.51-.73-.45-1.15.2-1.34-.12-2.68.06-4.02.18-1.41.09-2.84,0-4.27-.06-1-.36-2.07.39-2.95Z"/>
    <path class="cls-129" d="M68.83,77.03c.41-.37.24-.88.25-1.34.09-3.87-.16-7.74.18-11.6.03-.38-.11-.77-.17-1.16.22,0,.44,0,.65,0,.45.39.52.93.52,1.5,0,2.81-.03,5.63-.13,8.44-.04,1.1,0,2.21.02,3.31,0,.56.08,1.23-.69,1.34-.21-.16-.41-.33-.62-.49Z"/>
    <path class="cls-100" d="M69.45,77.52c.94-.89.41-2.15.4-3.11-.03-3.21.19-6.41.11-9.61-.02-.64-.06-1.26-.23-1.87.15,0,.29,0,.44,0,.14,0,.29,0,.43,0,.55.69.28,1.53.3,2.28.09,3.94-.1,7.88,0,11.82.01.49.33,1.46-.73,1.41-.24-.31-.48-.61-.72-.92Z"/>
    <path class="cls-101" d="M170,62.93h.87c.37.46.32,1.02.32,1.57.01,2.95-.11,5.9,0,8.85.02.51-.01,1.02.14,1.52-.31.15-.61.3-.92.46-.57.24-.7-.18-.74-.64-.05-.55-.21-1.11-.15-1.65.33-2.96-.03-5.92.16-8.88.03-.44.03-.88.32-1.23Z"/>
    <path class="cls-125" d="M142.97,62.93c-.37,1.43,0,2.87,0,4.3,0,2.23-.06,4.47-.2,6.7-.03.46.12.93.19,1.4-.36.41-.81.52-1.3.48.29-3.26-.08-6.51.05-9.77.04-1.03-.33-2.11.17-3.11.07,0,.15,0,.22,0,.29,0,.58,0,.87,0Z"/>
    <path class="cls-126" d="M160.19,74.13c.14.07.28.14.43.22-1.08-.03-2.16-.04-3.21.31-.6.06-.49-.47-.5-.81-.01-.67-.13-1.35-.06-2.01.27-2.6,0-5.19.06-7.79,0-.39-.05-.8.23-1.12.36,0,.73,0,1.09,0,.36.46.14,1,.15,1.49.04,2.8.14,5.6.03,8.4-.02.64.17.99.78.99.36,0,.71.05,1,.32Z"/>
    <path class="cls-36" d="M70.17,78.44c.91-.58.51-1.62.48-2.34-.19-4.39.07-8.78-.04-13.17.22,0,.44,0,.65,0,0,3.15.06,6.3-.02,9.44-.05,2.34-.04,4.67,0,7,0,.24.38.91-.39.74-.23-.56-.45-1.11-.68-1.67Z"/>
    <path class="cls-118" d="M163.9,75.75c.23-1.4.35-2.79.05-4.2-.19-.86.2-1.75.13-2.57-.15-1.71.15-3.44-.15-5.14-.06-.34.07-.62.19-.91.29,0,.58,0,.87,0-.26,2.47-.15,4.95-.1,7.43.04,2.08-.09,4.17-.15,6.25-.28-.29-.56-.58-.84-.86Z"/>
    <path class="cls-52" d="M170,62.93c0,2.74.06,5.47-.03,8.21-.04,1.17-.11,2.32-.04,3.5.03.45.06.67.47.69-.28.24-.56.49-.84.73-.61-.11-.44-.64-.44-1.04.02-1.67-.02-3.34.08-5.02.11-1.72-.04-3.47-.09-5.2-.02-.64.06-1.26.22-1.87.22,0,.44,0,.65,0Z"/>
    <path class="cls-104" d="M94.35,91.27c.72,3.09.04,6.22.24,9.32-1.52-.81-2.25-2.29-1.65-3.99.62-1.74.99-3.54,1.41-5.33Z"/>
    <path class="cls-77" d="M161.71,74.58c-.44-1.03-.39-2.09-.31-3.21.11-1.58-.06-3.18-.06-4.77,0-1.22.25-2.45-.06-3.67.36,0,.73,0,1.09,0,.25.75.27,1.54.28,2.33.03,3.1-.38,6.2.03,9.3.02.12-.04.23-.1.33-.29-.1-.58-.2-.87-.3Z"/>
    <path class="cls-58" d="M157.14,62.93c.19,3.63.14,7.25,0,10.88-.01.32-.05.65.26.85-.24.14-.49.29-.73.43-.36-.45-.34-1.02-.34-1.56,0-2.97,0-5.93.04-8.9,0-.56-.33-1.17.1-1.7.07,0,.14,0,.22,0,.15,0,.29,0,.44,0Z"/>
    <path class="cls-102" d="M140.57,62.93c.22,0,.44,0,.65,0,.35.31.39.75.36,1.19-.2,3.5.18,7-.02,10.49-.03.44-.03.87-.34,1.2-.61.04-1.22.1-1.79-.22.07-.12.16-.22.27-.28.5-.13.53-.55.53-1.01.02-3.32.02-6.64-.03-9.96,0-.53-.06-1.03.36-1.41Z"/>
    <path class="cls-66" d="M162.58,74.88c-.45-1.27-.34-2.57-.34-3.9,0-2.39.32-4.78-.02-7.16-.05-.35.03-.61.15-.9.22,0,.44,0,.65,0,.5,1.42-.05,2.85.05,4.29.16,2.4-.21,4.82.11,7.23.03.27-.09.45-.16.67-.14-.08-.29-.15-.43-.23Z"/>
    <path class="cls-64" d="M139.69,75.55c-.09.02-.17.03-.26.05-.38,0-.76.02-1.09-.25.27-.05.68.04.65-.42-.16-2.51.16-5-.07-7.53-.13-1.44.09-2.98.11-4.48.07,0,.15,0,.22,0,.14,0,.29,0,.43,0,.55,1.39.51,2.9.45,4.32-.09,2.34-.02,4.68-.08,7.01-.01.49.03.96-.37,1.29Z"/>
    <path class="cls-60" d="M173.05,62.93c0,2.87-.03,5.73.01,8.6.01,1.04-.58,2.08,0,3.12-.2,0-.4,0-.6,0-.15.09-.27.06-.38-.08-.26-.42-.23-.91-.23-1.38,0-2.93,0-5.87,0-8.8,0-.51-.03-1.04.32-1.46.29,0,.58,0,.87,0Z"/>
    <path class="cls-63" d="M108.13,88.23c-.4,0-.7-.1-.69-.65.01-1.84,0-3.69,0-5.53,0-.35.14-.6.43-.75.65,1.48,1.28,2.97,1.38,4.65.06,1.02-.17,1.86-1.12,2.28Z"/>
    <path class="cls-21" d="M141.22,75.81c.09-2.35.17-4.69.04-7.04-.09-1.55.05-3.12.07-4.67,0-.39-.07-.78-.1-1.17.22,0,.44,0,.65,0,.07,3.45.19,6.91.19,10.36,0,.82.28,1.79-.4,2.51-.15,0-.29,0-.44,0Z"/>
    <path class="cls-50" d="M172.18,74.58c.09.02.18.04.28.06-.38.07-.75.15-1.13.22-.67-.14-.45-.72-.45-1.15-.01-3.6,0-7.2,0-10.79.14,0,.29,0,.43,0,.07,0,.15,0,.22,0,.37.46.32,1.03.32,1.58.02,2.92-.03,5.85,0,8.77,0,.46-.09.97.34,1.3Z"/>
    <path class="cls-76" d="M105.69,82.24c.68,1.62.39,3.33.33,5.01-.01.35-.09.69-.13,1.04-1.02-.72-1.46-1.85-1.19-3.22.2-.99.48-1.96.99-2.83Z"/>
    <path class="cls-72" d="M68.21,63.17c.32,3.26-.03,6.53,0,9.79,0,1.05.37,2.1-.02,3.14-.06.17-.18.32-.28.48-.35-.05-.72-.03-1.04-.25,0,0,.03-.06.03-.06.45-.43.31-1.02.34-1.55.03-.6.13-1.18.31-1.74.23-2.81.05-5.63.13-8.45.01-.49-.23-1.17.51-1.36Z"/>
    <path class="cls-107" d="M165.18,95.29c.44,2.26.31,4.54.23,6.82-.01.3-.14.6-.21.9-.56-.71-.6-1.61-.6-2.46,0-1.77.13-3.54.58-5.26Z"/>
    <path class="cls-26" d="M74.97,112.8c-.31-1.68-.29-3.42-.13-5.07.11-1.16-.26-2.25-.06-3.37.44,2.07.97,4.12.9,6.28-.03.8-.12,1.58-.7,2.16Z"/>
    <path class="cls-104" d="M94.59,82.97c.42,2.01.23,4.05.09,6.06-.04.57.12,1.28-.31,1.8.18-2.62.24-5.24.22-7.86Z"/>
    <path class="cls-16" d="M97,88.93c-.33-.25-.25-.63-.23-.97.1-1.98-.25-3.97.18-5.94.02,2.3.04,4.6.05,6.9Z"/>
    <path class="cls-33" d="M97.42,93.23c-.62-1.38-.41-2.86-.43-4.32.14,1.44.29,2.88.43,4.32Z"/>
    <path class="cls-18" d="M73.65,92.27c-.34-1.35-.35-2.7,0-4.05,0,1.35,0,2.7,0,4.05Z"/>
    <path class="cls-120" d="M169.14,101.41c0-.68,0-1.36,0-2.04.23.68.25,1.36,0,2.04Z"/>
    <path class="cls-18" d="M73.67,87.32c.05-.57-.2-1.18.17-1.72,0,.58.07,1.17-.17,1.72Z"/>
    <path class="cls-112" d="M83.19,80.6c.53,0,1.06,0,1.59-.01-.53.3-1.06.35-1.59.01Z"/>
    <path class="cls-18" d="M73.87,83.45c.08,0,.15,0,.23,0-.01.5.04,1.02-.22,1.48,0-.49,0-.98-.01-1.48Z"/>
    <path class="cls-30" d="M71.7,85.12c.4.45.16.99.2,1.5-.25-.47-.2-.99-.2-1.5Z"/>
    <path class="cls-73" d="M127.04,92.93c-.04.5.2,1.05-.21,1.5,0-.51-.03-1.03.21-1.5Z"/>
    <path class="cls-120" d="M169.13,99.19c-.41-.44-.16-.99-.21-1.48.23.47.23.97.21,1.48Z"/>
    <path class="cls-61" d="M167.84,82.08c.02-.42-.16-.88.18-1.25.01.43.03.86-.18,1.25Z"/>
    <path class="cls-33" d="M96.11,100.62c-1.03-.01-.63-.88-.63-1.4,0-2.64.21-5.3.06-7.93-.09-1.56.18-3.05.16-4.59-.06-5.68-.02-11.36-.02-17.04v-6.74c.22,0,.44,0,.65,0-.07,12.56.06,25.13-.22,37.69Z"/>
    <path class="cls-22" d="M160.19,74.13c-.36,0-.73,0-1.09,0-.5-.72-.44-1.59-.4-2.4.1-2.41.02-4.82.06-7.23,0-.55-.03-1.12.34-1.57h0c.44,0,.87,0,1.31,0-.44,1.22-.06,2.49-.06,3.71,0,2.5.04,5-.16,7.49Z"/>
    <path class="cls-47" d="M133.81,74.34c-.51.01-1.01.02-1.52.03.39-2.53-.16-5.07.12-7.63.13-1.18.18-2.55-.11-3.82.07,0,.15,0,.22,0,.44,0,.87,0,1.31,0,.47.27.49.73.47,1.22-.14,2.99-.18,5.98-.16,8.98,0,.43,0,.87-.31,1.22Z"/>
    <path class="cls-88" d="M133.81,74.34c.04-3.5-.09-7.01.22-10.51.03-.33-.08-.62-.21-.91.44,0,.87,0,1.31,0,.33.89.21,1.89.13,2.74-.24,2.45-.1,4.88-.1,7.32,0,1.16-.29,1.62-1.34,1.36Z"/>
    <path class="cls-71" d="M67.77,73.19c-.24.75-.24,1.53-.22,2.3.02.5-.08.86-.64.77-.01-1.63-.04-3.26-.04-4.88,0-2.82.02-5.63.03-8.45.22,0,.44,0,.65,0,.21.26.22.58.21.9-.08,2.65.17,5.3-.03,7.95-.04.48.12.94.03,1.42Z"/>
    <path class="cls-72" d="M67.77,73.19c-.24-.43-.22-.91-.22-1.39,0-2.96,0-5.92,0-8.87.15,0,.29,0,.44,0,.07,0,.14,0,.22,0,0,.08,0,.16,0,.24-.36.35-.21.81-.21,1.23-.02,2.76-.01,5.52-.01,8.28,0,.21-.05.39-.21.51Z"/>
    <path class="cls-99" d="M172.18,74.58c-.8.12-.66-.51-.66-1,0-3.55,0-7.1,0-10.65.22,0,.44,0,.65,0,0,3.88,0,7.77,0,11.65Z"/>
    <path class="cls-12" d="M139.69,75.55c.28-.8-.02-1.61.05-2.43.18-1.89-.09-3.79.11-5.71.15-1.46-.25-2.98-.16-4.48.29,0,.58,0,.87,0-.02,1.79-.05,3.58-.05,5.38,0,2.09.03,4.18.06,6.26,0,.68-.2,1.07-.88.98Z"/>
    <path class="cls-74" d="M159.1,62.93c0,3.73,0,7.46,0,11.2-.9.11-1.08-.4-1.05-1.28.05-1.66.17-3.3.07-4.97-.09-1.63-.21-3.3.1-4.94.29,0,.58,0,.87,0Z"/>
  </g>
  <path class="cls-135" d="M0,63.22c81.83-.96,164.32-.96,245.79-1.96"/>
</svg>